<svg xmlns="http://www.w3.org/2000/svg" width="128" height="192" viewBox="0 0 128 192">
  <ellipse cx="54" cy="28" rx="16" ry="20" fill="#d2a07a"/>
  <ellipse cx="40" cy="30" rx="4" ry="5" fill="#d2a07a"/>
  <path d="M36 34 Q28 40 34 46" fill="none" stroke="#a86b48" stroke-width="2" stroke-linecap="round"/>
  <ellipse cx="46" cy="30" rx="3" ry="3.5" fill="#3a2a22"/>
  <path d="M34 40 Q40 44 46 40" fill="none" stroke="#8d4e42" stroke-width="2" stroke-linecap="round"/>
  <rect x="50" y="46" width="12" height="10" rx="3" fill="#d2a07a"/>
  <path d="M46 56 Q60 66 72 58 L84 80 Q82 112 68 118 L44 116 Q36 100 40 76 Z" fill="#d2a07a"/>
  <path d="M48 58 Q62 66 76 58 L84 78 Q82 106 70 112 L46 110 Q38 100 42 74 Z" fill="#4682c8"/>
  <path d="M46 110 L84 110 L88 168 L42 168 Z" fill="#28325a"/>
</svg>
